# xmcd
# 
# Track frame offsets:
#     150
#     1465
#     13418
#     22803
#     23806
#     29944
#     36670
#     49839
#     60174
#     70025
#     78872
#     90997
#     102256
#     112717
#     120534
#     134798
#     147300
#     160461
#     168737
#     181068
#     194156
# 
# Disc length: 2850
# 
# Revision: 0
# Processed by: cddbd v1.5.2PL0 Copyright (c) Steve Scherf et al.
# Submitted via: fre:ac v1.0.17
# 
DISCID=200b2015
DTITLE=Blind Lemming Chiffon - Live At 2013 Denver UkeFest
DYEAR=2013
DGENRE=Blues
TTITLE0=Intro To Blind Lemming Chiffon
TTITLE1=Ain't Misbehavin'
TTITLE2=Goody Goody
TTITLE3=And Now For Something Completely Different
TTITLE4=My Grandfather's Hat
TTITLE5=Howdido
TTITLE6=Mole In The Ground
TTITLE7=When You Wish Upon A Star
TTITLE8=Mysterious Most
TTITLE9=Too Tight Blues
TTITLE10=Police Got My Dad
TTITLE11=Nobody Knows You When You're Down And Out
TTITLE12=Tiptoe Through The Tulips With Me
TTITLE13=Blackberry Blossom (on McNally Strumstick)
TTITLE14=Over The Cliff Top
TTITLE15=When The Ice Worms Nest Again
TTITLE16=Cocaine Blues (Luke Jordan Version)
TTITLE17=Sweet Georgia Brown
TTITLE18=Lady, Be Good
TTITLE19=Keys To The Highway
TTITLE20=Walk Right In
EXTD=
EXTT0=
EXTT1=
EXTT2=
EXTT3=
EXTT4=
EXTT5=
EXTT6=
EXTT7=
EXTT8=
EXTT9=
EXTT10=
EXTT11=
EXTT12=
EXTT13=
EXTT14=
EXTT15=
EXTT16=
EXTT17=
EXTT18=
EXTT19=
EXTT20=
PLAYORDER=
